<svg xmlns="http://www.w3.org/2000/svg" viewBox="0 0 240 64" width="240" height="64"><g transform="translate(0,6) scale(0.8)"><defs><linearGradient id="ldg" x1="0" y1="0" x2="1" y2="1"><stop offset="0" stop-color="#7C5CFF"/><stop offset="1" stop-color="#4B31E0"/></linearGradient><linearGradient id="lda" x1="0" y1="0" x2="1" y2="1"><stop offset="0" stop-color="#22C3E6"/><stop offset="1" stop-color="#00B8D4"/></linearGradient></defs><path fill-rule="evenodd" d="M10 12h11a20 20 0 0 1 0 40H10a2 2 0 0 1-2-2V14a2 2 0 0 1 2-2z M19 21h2a11 11 0 0 1 0 22h-2z" fill="url(#ldg)"/><path d="M36 12h4a20 20 0 0 1 0 40h-4" fill="none" stroke="url(#lda)" stroke-width="7" stroke-linecap="round" stroke-linejoin="round"/></g><text x="60" y="34" font-family="Segoe UI, Helvetica, Arial, sans-serif" font-size="26" font-weight="700" fill="#F2EFFA">Doc</text><text x="114" y="34" font-family="Segoe UI, Helvetica, Arial, sans-serif" font-size="26" font-weight="400" fill="#F2EFFA">Desk</text><text x="61" y="50" font-family="Segoe UI, Helvetica, Arial, sans-serif" font-size="11" fill="#9C94B4">document workdesk</text></svg>